%TF.GenerationSoftware,KiCad,Pcbnew,9.0.6*%
%TF.CreationDate,2025-12-10T19:47:49+00:00*%
%TF.ProjectId,GettingToBlinky5.0,47657474-696e-4675-946f-426c696e6b79,rev?*%
%TF.SameCoordinates,Original*%
%TF.FileFunction,Legend,Top*%
%TF.FilePolarity,Positive*%
%FSLAX46Y46*%
G04 Gerber Fmt 4.6, Leading zero omitted, Abs format (unit mm)*
G04 Created by KiCad (PCBNEW 9.0.6) date 2025-12-10 19:47:49*
%MOMM*%
%LPD*%
G01*
G04 APERTURE LIST*
%ADD10C,0.100000*%
%ADD11C,0.120000*%
G04 APERTURE END LIST*
D10*
X140851503Y-85097942D02*
X140851503Y-83897942D01*
X140851503Y-84469371D02*
X141537217Y-84469371D01*
X141537217Y-85097942D02*
X141537217Y-83897942D01*
X142565789Y-85040800D02*
X142451503Y-85097942D01*
X142451503Y-85097942D02*
X142222932Y-85097942D01*
X142222932Y-85097942D02*
X142108646Y-85040800D01*
X142108646Y-85040800D02*
X142051503Y-84926514D01*
X142051503Y-84926514D02*
X142051503Y-84469371D01*
X142051503Y-84469371D02*
X142108646Y-84355085D01*
X142108646Y-84355085D02*
X142222932Y-84297942D01*
X142222932Y-84297942D02*
X142451503Y-84297942D01*
X142451503Y-84297942D02*
X142565789Y-84355085D01*
X142565789Y-84355085D02*
X142622932Y-84469371D01*
X142622932Y-84469371D02*
X142622932Y-84583657D01*
X142622932Y-84583657D02*
X142051503Y-84697942D01*
X143308645Y-85097942D02*
X143194360Y-85040800D01*
X143194360Y-85040800D02*
X143137217Y-84926514D01*
X143137217Y-84926514D02*
X143137217Y-83897942D01*
X143937216Y-85097942D02*
X143822931Y-85040800D01*
X143822931Y-85040800D02*
X143765788Y-84926514D01*
X143765788Y-84926514D02*
X143765788Y-83897942D01*
X144565787Y-85097942D02*
X144451502Y-85040800D01*
X144451502Y-85040800D02*
X144394359Y-84983657D01*
X144394359Y-84983657D02*
X144337216Y-84869371D01*
X144337216Y-84869371D02*
X144337216Y-84526514D01*
X144337216Y-84526514D02*
X144394359Y-84412228D01*
X144394359Y-84412228D02*
X144451502Y-84355085D01*
X144451502Y-84355085D02*
X144565787Y-84297942D01*
X144565787Y-84297942D02*
X144737216Y-84297942D01*
X144737216Y-84297942D02*
X144851502Y-84355085D01*
X144851502Y-84355085D02*
X144908645Y-84412228D01*
X144908645Y-84412228D02*
X144965787Y-84526514D01*
X144965787Y-84526514D02*
X144965787Y-84869371D01*
X144965787Y-84869371D02*
X144908645Y-84983657D01*
X144908645Y-84983657D02*
X144851502Y-85040800D01*
X144851502Y-85040800D02*
X144737216Y-85097942D01*
X144737216Y-85097942D02*
X144565787Y-85097942D01*
X146794359Y-84469371D02*
X146965787Y-84526514D01*
X146965787Y-84526514D02*
X147022930Y-84583657D01*
X147022930Y-84583657D02*
X147080073Y-84697942D01*
X147080073Y-84697942D02*
X147080073Y-84869371D01*
X147080073Y-84869371D02*
X147022930Y-84983657D01*
X147022930Y-84983657D02*
X146965787Y-85040800D01*
X146965787Y-85040800D02*
X146851502Y-85097942D01*
X146851502Y-85097942D02*
X146394359Y-85097942D01*
X146394359Y-85097942D02*
X146394359Y-83897942D01*
X146394359Y-83897942D02*
X146794359Y-83897942D01*
X146794359Y-83897942D02*
X146908645Y-83955085D01*
X146908645Y-83955085D02*
X146965787Y-84012228D01*
X146965787Y-84012228D02*
X147022930Y-84126514D01*
X147022930Y-84126514D02*
X147022930Y-84240800D01*
X147022930Y-84240800D02*
X146965787Y-84355085D01*
X146965787Y-84355085D02*
X146908645Y-84412228D01*
X146908645Y-84412228D02*
X146794359Y-84469371D01*
X146794359Y-84469371D02*
X146394359Y-84469371D01*
X147765787Y-85097942D02*
X147651502Y-85040800D01*
X147651502Y-85040800D02*
X147594359Y-84926514D01*
X147594359Y-84926514D02*
X147594359Y-83897942D01*
X148222930Y-85097942D02*
X148222930Y-84297942D01*
X148222930Y-83897942D02*
X148165787Y-83955085D01*
X148165787Y-83955085D02*
X148222930Y-84012228D01*
X148222930Y-84012228D02*
X148280073Y-83955085D01*
X148280073Y-83955085D02*
X148222930Y-83897942D01*
X148222930Y-83897942D02*
X148222930Y-84012228D01*
X148794359Y-84297942D02*
X148794359Y-85097942D01*
X148794359Y-84412228D02*
X148851502Y-84355085D01*
X148851502Y-84355085D02*
X148965787Y-84297942D01*
X148965787Y-84297942D02*
X149137216Y-84297942D01*
X149137216Y-84297942D02*
X149251502Y-84355085D01*
X149251502Y-84355085D02*
X149308645Y-84469371D01*
X149308645Y-84469371D02*
X149308645Y-85097942D01*
X149880073Y-85097942D02*
X149880073Y-83897942D01*
X149994359Y-84640800D02*
X150337216Y-85097942D01*
X150337216Y-84297942D02*
X149880073Y-84755085D01*
X150737216Y-84297942D02*
X151022930Y-85097942D01*
X151308645Y-84297942D02*
X151022930Y-85097942D01*
X151022930Y-85097942D02*
X150908645Y-85383657D01*
X150908645Y-85383657D02*
X150851502Y-85440800D01*
X150851502Y-85440800D02*
X150737216Y-85497942D01*
X155049942Y-96699999D02*
X154478514Y-97099999D01*
X155049942Y-97385713D02*
X153849942Y-97385713D01*
X153849942Y-97385713D02*
X153849942Y-96928570D01*
X153849942Y-96928570D02*
X153907085Y-96814285D01*
X153907085Y-96814285D02*
X153964228Y-96757142D01*
X153964228Y-96757142D02*
X154078514Y-96699999D01*
X154078514Y-96699999D02*
X154249942Y-96699999D01*
X154249942Y-96699999D02*
X154364228Y-96757142D01*
X154364228Y-96757142D02*
X154421371Y-96814285D01*
X154421371Y-96814285D02*
X154478514Y-96928570D01*
X154478514Y-96928570D02*
X154478514Y-97385713D01*
X153964228Y-96242856D02*
X153907085Y-96185713D01*
X153907085Y-96185713D02*
X153849942Y-96071428D01*
X153849942Y-96071428D02*
X153849942Y-95785713D01*
X153849942Y-95785713D02*
X153907085Y-95671428D01*
X153907085Y-95671428D02*
X153964228Y-95614285D01*
X153964228Y-95614285D02*
X154078514Y-95557142D01*
X154078514Y-95557142D02*
X154192800Y-95557142D01*
X154192800Y-95557142D02*
X154364228Y-95614285D01*
X154364228Y-95614285D02*
X155049942Y-96299999D01*
X155049942Y-96299999D02*
X155049942Y-95557142D01*
X137049942Y-95699999D02*
X136478514Y-96099999D01*
X137049942Y-96385713D02*
X135849942Y-96385713D01*
X135849942Y-96385713D02*
X135849942Y-95928570D01*
X135849942Y-95928570D02*
X135907085Y-95814285D01*
X135907085Y-95814285D02*
X135964228Y-95757142D01*
X135964228Y-95757142D02*
X136078514Y-95699999D01*
X136078514Y-95699999D02*
X136249942Y-95699999D01*
X136249942Y-95699999D02*
X136364228Y-95757142D01*
X136364228Y-95757142D02*
X136421371Y-95814285D01*
X136421371Y-95814285D02*
X136478514Y-95928570D01*
X136478514Y-95928570D02*
X136478514Y-96385713D01*
X135849942Y-95299999D02*
X135849942Y-94557142D01*
X135849942Y-94557142D02*
X136307085Y-94957142D01*
X136307085Y-94957142D02*
X136307085Y-94785713D01*
X136307085Y-94785713D02*
X136364228Y-94671428D01*
X136364228Y-94671428D02*
X136421371Y-94614285D01*
X136421371Y-94614285D02*
X136535657Y-94557142D01*
X136535657Y-94557142D02*
X136821371Y-94557142D01*
X136821371Y-94557142D02*
X136935657Y-94614285D01*
X136935657Y-94614285D02*
X136992800Y-94671428D01*
X136992800Y-94671428D02*
X137049942Y-94785713D01*
X137049942Y-94785713D02*
X137049942Y-95128570D01*
X137049942Y-95128570D02*
X136992800Y-95242856D01*
X136992800Y-95242856D02*
X136935657Y-95299999D01*
X144585714Y-89599942D02*
X144585714Y-90571371D01*
X144585714Y-90571371D02*
X144642857Y-90685657D01*
X144642857Y-90685657D02*
X144700000Y-90742800D01*
X144700000Y-90742800D02*
X144814285Y-90799942D01*
X144814285Y-90799942D02*
X145042857Y-90799942D01*
X145042857Y-90799942D02*
X145157142Y-90742800D01*
X145157142Y-90742800D02*
X145214285Y-90685657D01*
X145214285Y-90685657D02*
X145271428Y-90571371D01*
X145271428Y-90571371D02*
X145271428Y-89599942D01*
X146471428Y-90799942D02*
X145785714Y-90799942D01*
X146128571Y-90799942D02*
X146128571Y-89599942D01*
X146128571Y-89599942D02*
X146014285Y-89771371D01*
X146014285Y-89771371D02*
X145900000Y-89885657D01*
X145900000Y-89885657D02*
X145785714Y-89942800D01*
X137049942Y-100410713D02*
X135849942Y-100410713D01*
X135849942Y-100410713D02*
X135849942Y-100124999D01*
X135849942Y-100124999D02*
X135907085Y-99953570D01*
X135907085Y-99953570D02*
X136021371Y-99839285D01*
X136021371Y-99839285D02*
X136135657Y-99782142D01*
X136135657Y-99782142D02*
X136364228Y-99724999D01*
X136364228Y-99724999D02*
X136535657Y-99724999D01*
X136535657Y-99724999D02*
X136764228Y-99782142D01*
X136764228Y-99782142D02*
X136878514Y-99839285D01*
X136878514Y-99839285D02*
X136992800Y-99953570D01*
X136992800Y-99953570D02*
X137049942Y-100124999D01*
X137049942Y-100124999D02*
X137049942Y-100410713D01*
X137049942Y-98582142D02*
X137049942Y-99267856D01*
X137049942Y-98924999D02*
X135849942Y-98924999D01*
X135849942Y-98924999D02*
X136021371Y-99039285D01*
X136021371Y-99039285D02*
X136135657Y-99153570D01*
X136135657Y-99153570D02*
X136192800Y-99267856D01*
X136935657Y-91662499D02*
X136992800Y-91719642D01*
X136992800Y-91719642D02*
X137049942Y-91891070D01*
X137049942Y-91891070D02*
X137049942Y-92005356D01*
X137049942Y-92005356D02*
X136992800Y-92176785D01*
X136992800Y-92176785D02*
X136878514Y-92291070D01*
X136878514Y-92291070D02*
X136764228Y-92348213D01*
X136764228Y-92348213D02*
X136535657Y-92405356D01*
X136535657Y-92405356D02*
X136364228Y-92405356D01*
X136364228Y-92405356D02*
X136135657Y-92348213D01*
X136135657Y-92348213D02*
X136021371Y-92291070D01*
X136021371Y-92291070D02*
X135907085Y-92176785D01*
X135907085Y-92176785D02*
X135849942Y-92005356D01*
X135849942Y-92005356D02*
X135849942Y-91891070D01*
X135849942Y-91891070D02*
X135907085Y-91719642D01*
X135907085Y-91719642D02*
X135964228Y-91662499D01*
X137049942Y-90519642D02*
X137049942Y-91205356D01*
X137049942Y-90862499D02*
X135849942Y-90862499D01*
X135849942Y-90862499D02*
X136021371Y-90976785D01*
X136021371Y-90976785D02*
X136135657Y-91091070D01*
X136135657Y-91091070D02*
X136192800Y-91205356D01*
X155049942Y-92699999D02*
X154478514Y-93099999D01*
X155049942Y-93385713D02*
X153849942Y-93385713D01*
X153849942Y-93385713D02*
X153849942Y-92928570D01*
X153849942Y-92928570D02*
X153907085Y-92814285D01*
X153907085Y-92814285D02*
X153964228Y-92757142D01*
X153964228Y-92757142D02*
X154078514Y-92699999D01*
X154078514Y-92699999D02*
X154249942Y-92699999D01*
X154249942Y-92699999D02*
X154364228Y-92757142D01*
X154364228Y-92757142D02*
X154421371Y-92814285D01*
X154421371Y-92814285D02*
X154478514Y-92928570D01*
X154478514Y-92928570D02*
X154478514Y-93385713D01*
X155049942Y-91557142D02*
X155049942Y-92242856D01*
X155049942Y-91899999D02*
X153849942Y-91899999D01*
X153849942Y-91899999D02*
X154021371Y-92014285D01*
X154021371Y-92014285D02*
X154135657Y-92128570D01*
X154135657Y-92128570D02*
X154192800Y-92242856D01*
D11*
%TO.C,R2*%
X151765000Y-96272936D02*
X151765000Y-96727064D01*
X153235000Y-96272936D02*
X153235000Y-96727064D01*
%TO.C,R3*%
X137765000Y-95272936D02*
X137765000Y-95727064D01*
X139235000Y-95272936D02*
X139235000Y-95727064D01*
%TO.C,U1*%
X143440000Y-91440000D02*
X147560000Y-91440000D01*
X143440000Y-91535000D02*
X143440000Y-91440000D01*
X143440000Y-96560000D02*
X143440000Y-96465000D01*
X147560000Y-91440000D02*
X147560000Y-91535000D01*
X147560000Y-96465000D02*
X147560000Y-96560000D01*
X147560000Y-96560000D02*
X143440000Y-96560000D01*
X142900000Y-91530000D02*
X142660000Y-91200000D01*
X143140000Y-91200000D01*
X142900000Y-91530000D01*
G36*
X142900000Y-91530000D02*
G01*
X142660000Y-91200000D01*
X143140000Y-91200000D01*
X142900000Y-91530000D01*
G37*
%TO.C,D1*%
X137540000Y-98525000D02*
X137540000Y-101385000D01*
X137540000Y-101385000D02*
X139460000Y-101385000D01*
X139460000Y-101385000D02*
X139460000Y-98525000D01*
%TO.C,C1*%
X137765000Y-91723752D02*
X137765000Y-91201248D01*
X139235000Y-91723752D02*
X139235000Y-91201248D01*
%TO.C,R1*%
X151765000Y-92272936D02*
X151765000Y-92727064D01*
X153235000Y-92272936D02*
X153235000Y-92727064D01*
%TD*%
M02*
