%TF.GenerationSoftware,KiCad,Pcbnew,9.0.6*%
%TF.CreationDate,2025-12-10T19:47:49+00:00*%
%TF.ProjectId,GettingToBlinky5.0,47657474-696e-4675-946f-426c696e6b79,rev?*%
%TF.SameCoordinates,Original*%
%TF.FileFunction,Legend,Bot*%
%TF.FilePolarity,Positive*%
%FSLAX46Y46*%
G04 Gerber Fmt 4.6, Leading zero omitted, Abs format (unit mm)*
G04 Created by KiCad (PCBNEW 9.0.6) date 2025-12-10 19:47:49*
%MOMM*%
%LPD*%
G01*
G04 APERTURE LIST*
%ADD10C,0.100000*%
G04 APERTURE END LIST*
D10*
X146442856Y-97921371D02*
X146271428Y-97978514D01*
X146271428Y-97978514D02*
X146214285Y-98035657D01*
X146214285Y-98035657D02*
X146157142Y-98149942D01*
X146157142Y-98149942D02*
X146157142Y-98321371D01*
X146157142Y-98321371D02*
X146214285Y-98435657D01*
X146214285Y-98435657D02*
X146271428Y-98492800D01*
X146271428Y-98492800D02*
X146385713Y-98549942D01*
X146385713Y-98549942D02*
X146842856Y-98549942D01*
X146842856Y-98549942D02*
X146842856Y-97349942D01*
X146842856Y-97349942D02*
X146442856Y-97349942D01*
X146442856Y-97349942D02*
X146328571Y-97407085D01*
X146328571Y-97407085D02*
X146271428Y-97464228D01*
X146271428Y-97464228D02*
X146214285Y-97578514D01*
X146214285Y-97578514D02*
X146214285Y-97692800D01*
X146214285Y-97692800D02*
X146271428Y-97807085D01*
X146271428Y-97807085D02*
X146328571Y-97864228D01*
X146328571Y-97864228D02*
X146442856Y-97921371D01*
X146442856Y-97921371D02*
X146842856Y-97921371D01*
X145814285Y-97349942D02*
X145128571Y-97349942D01*
X145471428Y-98549942D02*
X145471428Y-97349942D01*
X144099999Y-98549942D02*
X144785713Y-98549942D01*
X144442856Y-98549942D02*
X144442856Y-97349942D01*
X144442856Y-97349942D02*
X144557142Y-97521371D01*
X144557142Y-97521371D02*
X144671427Y-97635657D01*
X144671427Y-97635657D02*
X144785713Y-97692800D01*
%TO.C,BT1*%
X135500000Y-83500000D02*
X135500000Y-104500000D01*
X135500000Y-104500000D02*
X155500000Y-104500000D01*
X155500000Y-83500000D02*
X135500000Y-83500000D01*
X155500000Y-104500000D02*
X155500000Y-83500000D01*
%TD*%
M02*
