%TF.GenerationSoftware,KiCad,Pcbnew,9.0.6*%
%TF.CreationDate,2025-12-10T19:47:48+00:00*%
%TF.ProjectId,GettingToBlinky5.0,47657474-696e-4675-946f-426c696e6b79,rev?*%
%TF.SameCoordinates,Original*%
%TF.FileFunction,Copper,L2,Bot*%
%TF.FilePolarity,Positive*%
%FSLAX46Y46*%
G04 Gerber Fmt 4.6, Leading zero omitted, Abs format (unit mm)*
G04 Created by KiCad (PCBNEW 9.0.6) date 2025-12-10 19:47:48*
%MOMM*%
%LPD*%
G01*
G04 APERTURE LIST*
%TA.AperFunction,SMDPad,CuDef*%
%ADD10R,5.500000X5.500000*%
%TD*%
%TA.AperFunction,SMDPad,CuDef*%
%ADD11R,4.000000X4.000000*%
%TD*%
%TA.AperFunction,ViaPad*%
%ADD12C,0.600000*%
%TD*%
%TA.AperFunction,Conductor*%
%ADD13C,0.200000*%
%TD*%
G04 APERTURE END LIST*
D10*
%TO.P,BT1,1,+*%
%TO.N,/VDD*%
X158300000Y-94000000D03*
X132700000Y-94000000D03*
D11*
%TO.P,BT1,2,-*%
%TO.N,GND*%
X145500000Y-94000000D03*
%TD*%
D12*
%TO.N,GND*%
X138500000Y-102500000D03*
%TO.N,/VDD*%
X132750000Y-89000000D03*
X158300000Y-88550000D03*
%TO.N,GND*%
X138500000Y-88000000D03*
%TD*%
D13*
%TO.N,/VDD*%
X158250000Y-88500000D02*
X158300000Y-88550000D01*
X132700000Y-94000000D02*
X132700000Y-89050000D01*
X158300000Y-94000000D02*
X158300000Y-88550000D01*
X132700000Y-89050000D02*
X132750000Y-89000000D01*
%TD*%
%TA.AperFunction,Conductor*%
%TO.N,GND*%
G36*
X161442366Y-79521114D02*
G01*
X161488208Y-79573842D01*
X161499500Y-79625541D01*
X161499500Y-90713568D01*
X161479815Y-90780607D01*
X161427011Y-90826362D01*
X161357853Y-90836306D01*
X161301190Y-90812835D01*
X161292334Y-90806206D01*
X161292328Y-90806202D01*
X161157482Y-90755908D01*
X161157483Y-90755908D01*
X161097883Y-90749501D01*
X161097881Y-90749500D01*
X161097873Y-90749500D01*
X161097865Y-90749500D01*
X159024500Y-90749500D01*
X158957461Y-90729815D01*
X158911706Y-90677011D01*
X158900500Y-90625500D01*
X158900500Y-89129765D01*
X158920185Y-89062726D01*
X158921398Y-89060874D01*
X159009390Y-88929185D01*
X159009390Y-88929184D01*
X159009394Y-88929179D01*
X159012719Y-88921153D01*
X159069735Y-88783501D01*
X159069737Y-88783497D01*
X159100500Y-88628842D01*
X159100500Y-88471158D01*
X159100500Y-88471155D01*
X159100499Y-88471153D01*
X159082012Y-88378213D01*
X159069737Y-88316503D01*
X159069735Y-88316498D01*
X159009397Y-88170827D01*
X159009390Y-88170814D01*
X158921789Y-88039711D01*
X158921786Y-88039707D01*
X158810292Y-87928213D01*
X158810288Y-87928210D01*
X158679185Y-87840609D01*
X158679172Y-87840602D01*
X158533501Y-87780264D01*
X158533489Y-87780261D01*
X158378845Y-87749500D01*
X158378842Y-87749500D01*
X158221158Y-87749500D01*
X158221155Y-87749500D01*
X158066510Y-87780261D01*
X158066498Y-87780264D01*
X157920827Y-87840602D01*
X157920814Y-87840609D01*
X157789711Y-87928210D01*
X157789707Y-87928213D01*
X157678213Y-88039707D01*
X157678210Y-88039711D01*
X157590609Y-88170814D01*
X157590602Y-88170827D01*
X157530264Y-88316498D01*
X157530261Y-88316510D01*
X157499500Y-88471153D01*
X157499500Y-88628846D01*
X157530261Y-88783489D01*
X157530264Y-88783501D01*
X157590602Y-88929172D01*
X157590609Y-88929185D01*
X157678602Y-89060874D01*
X157699480Y-89127551D01*
X157699500Y-89129765D01*
X157699500Y-90625500D01*
X157679815Y-90692539D01*
X157627011Y-90738294D01*
X157575500Y-90749500D01*
X155502129Y-90749500D01*
X155502123Y-90749501D01*
X155442516Y-90755908D01*
X155307671Y-90806202D01*
X155307664Y-90806206D01*
X155192455Y-90892452D01*
X155192452Y-90892455D01*
X155106206Y-91007664D01*
X155106202Y-91007671D01*
X155055908Y-91142517D01*
X155049501Y-91202116D01*
X155049501Y-91202123D01*
X155049500Y-91202135D01*
X155049500Y-96797870D01*
X155049501Y-96797876D01*
X155055908Y-96857483D01*
X155106202Y-96992328D01*
X155106206Y-96992335D01*
X155192452Y-97107544D01*
X155192455Y-97107547D01*
X155307664Y-97193793D01*
X155307671Y-97193797D01*
X155442517Y-97244091D01*
X155442516Y-97244091D01*
X155449444Y-97244835D01*
X155502127Y-97250500D01*
X161097872Y-97250499D01*
X161157483Y-97244091D01*
X161292331Y-97193796D01*
X161301186Y-97187166D01*
X161366649Y-97162747D01*
X161434923Y-97177596D01*
X161484330Y-97227000D01*
X161499500Y-97286431D01*
X161499500Y-108376539D01*
X161479815Y-108443578D01*
X161427011Y-108489333D01*
X161375707Y-108500539D01*
X129624707Y-108553457D01*
X129557634Y-108533884D01*
X129511792Y-108481156D01*
X129500500Y-108429457D01*
X129500500Y-97286431D01*
X129520185Y-97219392D01*
X129572989Y-97173637D01*
X129642147Y-97163693D01*
X129698813Y-97187166D01*
X129707669Y-97193796D01*
X129707670Y-97193796D01*
X129707671Y-97193797D01*
X129842517Y-97244091D01*
X129842516Y-97244091D01*
X129849444Y-97244835D01*
X129902127Y-97250500D01*
X135497872Y-97250499D01*
X135557483Y-97244091D01*
X135692331Y-97193796D01*
X135807546Y-97107546D01*
X135893796Y-96992331D01*
X135944091Y-96857483D01*
X135950500Y-96797873D01*
X135950500Y-96047844D01*
X143000000Y-96047844D01*
X143006401Y-96107372D01*
X143006403Y-96107379D01*
X143056645Y-96242086D01*
X143056649Y-96242093D01*
X143142809Y-96357187D01*
X143142812Y-96357190D01*
X143257906Y-96443350D01*
X143257913Y-96443354D01*
X143392620Y-96493596D01*
X143392627Y-96493598D01*
X143452155Y-96499999D01*
X143452172Y-96500000D01*
X145250000Y-96500000D01*
X145750000Y-96500000D01*
X147547828Y-96500000D01*
X147547844Y-96499999D01*
X147607372Y-96493598D01*
X147607379Y-96493596D01*
X147742086Y-96443354D01*
X147742093Y-96443350D01*
X147857187Y-96357190D01*
X147857190Y-96357187D01*
X147943350Y-96242093D01*
X147943354Y-96242086D01*
X147993596Y-96107379D01*
X147993598Y-96107372D01*
X147999999Y-96047844D01*
X148000000Y-96047827D01*
X148000000Y-94250000D01*
X145750000Y-94250000D01*
X145750000Y-96500000D01*
X145250000Y-96500000D01*
X145250000Y-94250000D01*
X143000000Y-94250000D01*
X143000000Y-96047844D01*
X135950500Y-96047844D01*
X135950499Y-91952155D01*
X143000000Y-91952155D01*
X143000000Y-93750000D01*
X145250000Y-93750000D01*
X145750000Y-93750000D01*
X148000000Y-93750000D01*
X148000000Y-91952172D01*
X147999999Y-91952155D01*
X147993598Y-91892627D01*
X147993596Y-91892620D01*
X147943354Y-91757913D01*
X147943350Y-91757906D01*
X147857190Y-91642812D01*
X147857187Y-91642809D01*
X147742093Y-91556649D01*
X147742086Y-91556645D01*
X147607379Y-91506403D01*
X147607372Y-91506401D01*
X147547844Y-91500000D01*
X145750000Y-91500000D01*
X145750000Y-93750000D01*
X145250000Y-93750000D01*
X145250000Y-91500000D01*
X143452155Y-91500000D01*
X143392627Y-91506401D01*
X143392620Y-91506403D01*
X143257913Y-91556645D01*
X143257906Y-91556649D01*
X143142812Y-91642809D01*
X143142809Y-91642812D01*
X143056649Y-91757906D01*
X143056645Y-91757913D01*
X143006403Y-91892620D01*
X143006401Y-91892627D01*
X143000000Y-91952155D01*
X135950499Y-91952155D01*
X135950499Y-91202128D01*
X135944091Y-91142517D01*
X135893796Y-91007669D01*
X135893795Y-91007668D01*
X135893793Y-91007664D01*
X135807547Y-90892455D01*
X135807544Y-90892452D01*
X135692335Y-90806206D01*
X135692328Y-90806202D01*
X135557482Y-90755908D01*
X135557483Y-90755908D01*
X135497883Y-90749501D01*
X135497881Y-90749500D01*
X135497873Y-90749500D01*
X135497865Y-90749500D01*
X133424500Y-90749500D01*
X133357461Y-90729815D01*
X133311706Y-90677011D01*
X133300500Y-90625500D01*
X133300500Y-89632940D01*
X133320185Y-89565901D01*
X133336820Y-89545258D01*
X133371786Y-89510292D01*
X133371789Y-89510289D01*
X133459394Y-89379179D01*
X133519737Y-89233497D01*
X133550500Y-89078842D01*
X133550500Y-88921158D01*
X133550500Y-88921155D01*
X133550499Y-88921153D01*
X133523117Y-88783497D01*
X133519737Y-88766503D01*
X133519735Y-88766498D01*
X133459397Y-88620827D01*
X133459390Y-88620814D01*
X133371789Y-88489711D01*
X133371786Y-88489707D01*
X133260292Y-88378213D01*
X133260288Y-88378210D01*
X133129185Y-88290609D01*
X133129172Y-88290602D01*
X132983501Y-88230264D01*
X132983489Y-88230261D01*
X132828845Y-88199500D01*
X132828842Y-88199500D01*
X132671158Y-88199500D01*
X132671155Y-88199500D01*
X132516510Y-88230261D01*
X132516498Y-88230264D01*
X132370827Y-88290602D01*
X132370814Y-88290609D01*
X132239711Y-88378210D01*
X132239707Y-88378213D01*
X132128213Y-88489707D01*
X132128210Y-88489711D01*
X132040609Y-88620814D01*
X132040602Y-88620827D01*
X131980264Y-88766498D01*
X131980261Y-88766510D01*
X131949500Y-88921153D01*
X131949500Y-89078846D01*
X131980261Y-89233489D01*
X131980264Y-89233501D01*
X132040602Y-89379172D01*
X132040606Y-89379179D01*
X132078602Y-89436044D01*
X132099480Y-89502721D01*
X132099500Y-89504935D01*
X132099500Y-90625500D01*
X132079815Y-90692539D01*
X132027011Y-90738294D01*
X131975500Y-90749500D01*
X129902129Y-90749500D01*
X129902123Y-90749501D01*
X129842516Y-90755908D01*
X129707671Y-90806202D01*
X129707665Y-90806206D01*
X129698810Y-90812835D01*
X129633346Y-90837252D01*
X129565073Y-90822400D01*
X129515668Y-90772995D01*
X129500500Y-90713568D01*
X129500500Y-79678459D01*
X129520185Y-79611420D01*
X129572989Y-79565665D01*
X129624289Y-79554459D01*
X161375293Y-79501541D01*
X161442366Y-79521114D01*
G37*
%TD.AperFunction*%
%TD*%
M02*
